<svg width="43" height="20" viewBox="0 0 43 20" fill="none" xmlns="http://www.w3.org/2000/svg">
<path fill-rule="evenodd" clip-rule="evenodd" d="M17.301 12.3858C17.5267 12.3858 17.7135 12.4594 17.8627 12.6064C18.0119 12.7534 18.0859 12.9699 18.0859 13.256V13.6366C18.0859 13.9226 18.0119 14.1391 17.8627 14.2862C17.7135 14.4332 17.5267 14.5068 17.301 14.5068C17.0803 14.5068 16.8948 14.4332 16.7468 14.2862C16.5976 14.1391 16.5237 13.9226 16.5237 13.6366V13.256C16.5237 12.9699 16.5976 12.7534 16.7468 12.6064C16.8948 12.4594 17.0803 12.3858 17.301 12.3858ZM13.393 12.3556C13.5296 12.3556 13.6575 12.3858 13.7754 12.4463C13.8945 12.5066 13.9885 12.5883 14.0599 12.6909C14.1302 12.7937 14.1653 12.9035 14.1653 13.0202H12.6382C12.6833 12.8027 12.7736 12.6376 12.9102 12.5248C13.0469 12.4119 13.2074 12.3556 13.393 12.3556ZM19.5152 11.6123V13.8118C19.5152 14.126 19.5779 14.401 19.7045 14.6366C19.8311 14.8723 20.0004 15.0536 20.2123 15.1805C20.4229 15.3074 20.6511 15.3708 20.8969 15.3708C21.11 15.3708 21.3031 15.3255 21.4761 15.2348C21.6491 15.1443 21.7896 15.0224 21.8986 14.8693L21.935 15.2802H22.8214V11.6123H21.8736V13.8542C21.8736 14.0556 21.8046 14.2157 21.6654 14.3346C21.5275 14.4534 21.3608 14.5128 21.1677 14.5128C20.6975 14.5128 20.4618 14.267 20.4618 13.7756V11.6123H19.5152ZM17.301 11.5217C16.9838 11.5217 16.6942 11.5871 16.4334 11.7181C16.1713 11.849 15.9632 12.0424 15.8077 12.2982C15.6535 12.5539 15.5758 12.8651 15.5758 13.2318V13.6547C15.5758 14.0214 15.6535 14.3336 15.8077 14.5913C15.9632 14.8492 16.1713 15.0435 16.4334 15.1745C16.6942 15.3054 16.9838 15.3708 17.301 15.3708C17.6195 15.3708 17.9103 15.3054 18.1736 15.1745C18.4369 15.0435 18.6463 14.8492 18.8005 14.5913C18.956 14.3336 19.0337 14.0214 19.0337 13.6547V13.2318C19.0337 12.8651 18.956 12.5539 18.8005 12.2982C18.6463 12.0424 18.4369 11.849 18.1736 11.7181C17.9103 11.5871 17.6195 11.5217 17.301 11.5217ZM13.393 11.5217C13.0745 11.5217 12.7886 11.5882 12.5328 11.7211C12.2771 11.8541 12.074 12.0534 11.9235 12.3194C11.7731 12.5853 11.6978 12.9055 11.6978 13.2801V13.6064C11.6978 13.9851 11.7731 14.3064 11.9235 14.5702C12.074 14.8341 12.2771 15.0334 12.5328 15.1684C12.7886 15.3034 13.0745 15.3708 13.393 15.3708C13.7992 15.3708 14.149 15.2802 14.4424 15.099C14.7357 14.9176 14.9338 14.6619 15.0341 14.3316L14.1715 14.0777C14.1101 14.2268 14.0123 14.3406 13.8756 14.4191C13.739 14.4977 13.5773 14.537 13.393 14.537C13.1961 14.537 13.0268 14.4736 12.8864 14.3467C12.7447 14.2197 12.6582 14.0355 12.6269 13.7937H15.0943V13.2861C15.0943 12.9075 15.0191 12.5853 14.8674 12.3194C14.717 12.0534 14.5126 11.8541 14.2555 11.7211C13.9985 11.5882 13.7102 11.5217 13.393 11.5217ZM23.4847 10.3132V15.2802H24.4313V10.3132H23.4847ZM9.30057 10.2226C8.97082 10.2226 8.67244 10.281 8.40789 10.3978C8.14208 10.5147 7.9327 10.6827 7.77974 10.9024C7.62677 11.1219 7.55028 11.3787 7.55028 11.6728C7.55028 12.3858 8.00917 12.8651 8.92569 13.1109L9.6441 13.3043C9.86979 13.3646 10.029 13.4433 10.1243 13.5399C10.2183 13.6366 10.266 13.7675 10.266 13.9327C10.266 14.118 10.1857 14.261 10.0278 14.3618C9.86854 14.4625 9.64035 14.5128 9.34195 14.5128C9.04857 14.5128 8.79278 14.4372 8.57336 14.2862C8.35395 14.1351 8.18471 13.9267 8.06309 13.6607L7.26693 14.0596C7.43619 14.4746 7.69949 14.7968 8.05807 15.0264C8.4154 15.2561 8.8442 15.3708 9.34195 15.3708C9.69301 15.3708 10.0077 15.3134 10.2898 15.1986C10.5719 15.0838 10.7938 14.9176 10.9568 14.7001C11.1198 14.4826 11.2013 14.2268 11.2013 13.9327C11.2013 13.5177 11.0709 13.1934 10.8114 12.9599C10.5519 12.7263 10.2259 12.557 9.83092 12.4523L9.14384 12.271C8.92568 12.2146 8.7627 12.1421 8.65237 12.0534C8.54078 11.9649 8.48561 11.838 8.48561 11.6728C8.48561 11.4875 8.55458 11.3425 8.69375 11.2377C8.83292 11.1331 9.03476 11.0806 9.30057 11.0806C9.55007 11.0806 9.76697 11.149 9.95253 11.286C10.1368 11.423 10.286 11.6002 10.3989 11.8178L11.1825 11.419C11.0383 11.0766 10.8001 10.7916 10.4704 10.564C10.1406 10.3363 9.75068 10.2226 9.30057 10.2226ZM11.9887 0.000206602C14.5113 -0.0187872 17.0916 1.27077 18.6425 4.3148C22.1532 2.22977 27.2335 4.51468 27.1921 9.3074C29.5179 10.0836 30.7341 11.8026 31.0187 13.6401C33.0925 13.3673 34.7525 11.6377 34.8227 9.09104C31.3647 10.4093 28.5412 7.51984 29.2396 4.27606C30.9623 6.1494 34.1155 3.0548 35.6301 5.66801C37.1434 3.0548 40.298 6.1494 42.0207 4.27606C42.7203 7.52085 39.8943 10.4109 36.4338 9.08966C37.1899 14.8817 34.3613 19.923 28.224 19.9961C26.7019 20.0141 25.3578 19.1863 24.5002 18.0459C23.605 19.2327 22.1858 20 20.5872 20C18.9898 20 17.5693 19.2327 16.6766 18.0459C15.7827 19.2327 14.3621 20 12.7635 20C11.1662 20 9.74694 19.2327 8.85299 18.0459C8.00668 19.1691 6.69144 20.0206 5.19692 19.993C1.2525 19.9197 -0.708419 15.6162 0.233176 12.7272C0.84001 10.8659 2.46618 9.25003 4.86342 8.93192C3.73251 3.69757 7.78225 0.0316532 11.9887 0.000206602Z" fill="white"/>
</svg>
