<svg width="52" height="25" viewBox="0 0 52 25" fill="none" xmlns="http://www.w3.org/2000/svg">
<path fill-rule="evenodd" clip-rule="evenodd" d="M33.5647 11.6344C33.6151 5.64353 27.3454 2.78738 23.0112 5.39363C17.9068 -4.7534 3.77062 0.69617 6.00283 11.1651C3.04424 11.5626 1.03643 13.5826 0.287824 15.9091C-0.874399 19.5205 1.54584 24.9001 6.41447 24.9916C8.25941 25.0261 9.88318 23.9616 10.9271 22.5576C12.0308 24.0412 13.7832 25 15.7553 25C17.7284 25 19.4808 24.0412 20.5841 22.5576C21.6872 24.0412 23.4398 25 25.4123 25C27.3851 25 29.1372 24.0412 30.2414 22.5576C31.301 23.9832 32.9598 25.0181 34.8388 24.9957C42.4143 24.9041 45.9054 18.6023 44.9725 11.3623C49.2441 13.0138 52.7313 9.40124 51.8677 5.34526C49.7417 7.68693 45.8492 3.81858 43.9802 7.08516C42.1113 3.81858 38.2191 7.68693 36.0931 5.34526C35.2297 9.39996 38.7146 13.0117 42.9844 11.3639C42.896 14.5473 40.8487 16.7094 38.2883 17.0504C37.9369 14.7535 36.4362 12.6047 33.5647 11.6344Z" fill="#2A6FD4"/>
</svg>
