<svg width="150" height="126" viewBox="0 0 150 126" fill="none" xmlns="http://www.w3.org/2000/svg">
<g clip-path="url(#clip0_74_2019)">
<mask id="mask0_74_2019" style="mask-type:luminance" maskUnits="userSpaceOnUse" x="0" y="0" width="150" height="126">
<path d="M150 0H0V126H150V0Z" fill="white"/>
</mask>
<g mask="url(#mask0_74_2019)">
<path fill-rule="evenodd" clip-rule="evenodd" d="M62.1258 43.8404C62.9246 43.8404 63.5858 44.1009 64.1139 44.6213C64.642 45.1418 64.9039 45.908 64.9039 46.9205V48.2678C64.9039 49.2802 64.642 50.0465 64.1139 50.5669C63.5858 51.0874 62.9246 51.3478 62.1258 51.3478C61.3447 51.3478 60.6879 51.0874 60.1643 50.5669C59.6361 50.0465 59.3743 49.2802 59.3743 48.2678V46.9205C59.3743 45.908 59.6361 45.1418 60.1643 44.6213C60.6879 44.1009 61.3447 43.8404 62.1258 43.8404ZM48.293 43.7335C48.7767 43.7335 49.2294 43.8404 49.6465 44.0545C50.0681 44.2683 50.4009 44.5572 50.6538 44.9205C50.9023 45.2843 51.0266 45.6729 51.0266 46.0861H45.6213C45.7811 45.3163 46.1006 44.7318 46.5843 44.3324C47.0681 43.933 47.6361 43.7335 48.293 43.7335ZM69.963 41.1027V48.888C69.963 50.0001 70.1849 50.9734 70.6331 51.8073C71.0813 52.6417 71.6805 53.2833 72.4305 53.7325C73.176 54.1817 73.9837 54.4061 74.8535 54.4061C75.608 54.4061 76.2915 54.2459 76.9039 53.9248C77.5163 53.6043 78.0133 53.1728 78.3994 52.631L78.5281 54.0856H81.6657V41.1027H78.3107V49.038C78.3107 49.7508 78.0666 50.3176 77.574 50.7383C77.0858 51.1591 76.4956 51.3692 75.8122 51.3692C74.148 51.3692 73.3136 50.4992 73.3136 48.7597V41.1027H69.963ZM62.1258 40.7821C61.003 40.7821 59.9779 41.0136 59.0548 41.4771C58.1273 41.9406 57.3906 42.6249 56.8403 43.5305C56.2944 44.4357 56.0192 45.5372 56.0192 46.835V48.3319C56.0192 49.6297 56.2944 50.7348 56.8403 51.647C57.3906 52.5598 58.1273 53.2477 59.0548 53.7111C59.9779 54.1746 61.003 54.4061 62.1258 54.4061C63.253 54.4061 64.2825 54.1746 65.2145 53.7111C66.1464 53.2477 66.8876 52.5598 67.4334 51.647C67.9837 50.7348 68.2589 49.6297 68.2589 48.3319V46.835C68.2589 45.5372 67.9837 44.4357 67.4334 43.5305C66.8876 42.6249 66.1464 41.9406 65.2145 41.4771C64.2825 41.0136 63.253 40.7821 62.1258 40.7821ZM48.293 40.7821C47.1657 40.7821 46.1539 41.0172 45.2485 41.4878C44.3432 41.9584 43.6243 42.6641 43.0918 43.6053C42.5592 44.5465 42.2929 45.6801 42.2929 47.006V48.1609C42.2929 49.5015 42.5592 50.6386 43.0918 51.5723C43.6243 52.5063 44.3432 53.212 45.2485 53.6898C46.1539 54.1675 47.1657 54.4061 48.293 54.4061C49.7308 54.4061 50.9689 54.0856 52.0074 53.444C53.0459 52.802 53.747 51.8968 54.1021 50.7276L51.0489 49.8292C50.8314 50.3568 50.4852 50.7597 50.0015 51.0375C49.5177 51.3158 48.9453 51.4547 48.293 51.4547C47.5962 51.4547 46.9971 51.2303 46.5 50.7811C45.9986 50.3319 45.6923 49.6796 45.5814 48.8238H54.3151V47.0273C54.3151 45.6872 54.0489 44.5465 53.5119 43.6053C52.9793 42.6641 52.2559 41.9584 51.3462 41.4878C50.4364 41.0172 49.4157 40.7821 48.293 40.7821ZM84.0134 36.5043V54.0856H87.364V36.5043H84.0134ZM33.8077 36.1838C32.6405 36.1838 31.5844 36.3904 30.648 36.804C29.7072 37.2176 28.966 37.8124 28.4246 38.5898C27.8832 39.3667 27.6124 40.2759 27.6124 41.3168C27.6124 43.8404 29.2367 45.5372 32.4808 46.4071L35.0237 47.0914C35.8225 47.3052 36.3861 47.5834 36.7234 47.9254C37.0562 48.2678 37.2248 48.7312 37.2248 49.3158C37.2248 49.9717 36.9408 50.4779 36.3817 50.8345C35.8181 51.1911 35.0104 51.3692 33.9542 51.3692C32.9157 51.3692 32.0103 51.1016 31.2337 50.5669C30.4571 50.0322 29.858 49.2945 29.4276 48.3532L26.6095 49.7651C27.2086 51.2339 28.1406 52.3746 29.4098 53.1871C30.6746 54.0001 32.1923 54.4061 33.9542 54.4061C35.1968 54.4061 36.3107 54.2031 37.3092 53.7966C38.3077 53.3901 39.0932 52.802 39.6701 52.0322C40.247 51.2624 40.5356 50.3568 40.5356 49.3158C40.5356 47.847 40.074 46.6992 39.1553 45.8724C38.2367 45.0456 37.0828 44.4463 35.6849 44.0759L33.253 43.4343C32.4808 43.2344 31.9039 42.978 31.5133 42.6641C31.1184 42.3507 30.9231 41.9014 30.9231 41.3168C30.9231 40.661 31.1672 40.1477 31.6598 39.7768C32.1524 39.4064 32.8669 39.2207 33.8077 39.2207C34.6908 39.2207 35.4586 39.4629 36.1154 39.9477C36.7677 40.4326 37.2959 41.0599 37.6953 41.8302L40.4689 40.4184C39.9586 39.2064 39.1154 38.1976 37.9483 37.3921C36.7811 36.5863 35.4009 36.1838 33.8077 36.1838ZM43.3226 0.000853352C52.2516 -0.0663763 61.3846 4.4981 66.8743 15.2727C79.3003 7.89253 97.2825 15.9801 97.1361 32.9443C105.368 35.6918 109.673 41.7763 110.68 48.2802C118.021 47.3145 123.896 41.1926 124.145 32.1785C111.905 36.8445 101.911 26.6171 104.383 15.1355C110.481 21.7663 121.642 10.8128 127.003 20.0624C132.359 10.8128 143.525 21.7663 149.623 15.1355C152.099 26.6207 142.096 36.8503 129.848 32.1736C132.524 52.6751 122.512 70.519 100.789 70.7777C95.401 70.8413 90.6435 67.9113 87.608 63.8749C84.4393 68.0756 79.4157 70.7915 73.7574 70.7915C68.1036 70.7915 63.0755 68.0756 59.9157 63.8749C56.7515 68.0756 51.7234 70.7915 46.0651 70.7915C40.4113 70.7915 35.3876 68.0756 32.2234 63.8749C29.2279 67.8503 24.5725 70.8645 19.2825 70.7665C5.32101 70.5074 -1.6198 55.2748 1.71304 45.0488C3.86097 38.4607 9.61691 32.7412 18.1021 31.6153C14.0992 13.0879 28.4335 0.112161 43.3226 0.000853352Z" fill="white"/>
<path fill-rule="evenodd" clip-rule="evenodd" d="M17.4186 115.381C16.4956 115.381 15.6568 115.473 14.9024 115.657C14.148 115.842 13.5089 116.075 12.9852 116.358C12.4615 116.641 12.0533 116.96 11.7604 117.317C11.4675 117.673 11.321 118.024 11.321 118.367V119.252C11.321 119.597 11.4675 119.947 11.7604 120.303C12.0533 120.66 12.4615 120.98 12.9852 121.262C13.5089 121.545 14.148 121.778 14.9024 121.963C15.6568 122.147 16.4956 122.239 17.4186 122.239C18.3462 122.239 19.1849 122.147 19.9393 121.963C20.6938 121.778 21.3328 121.545 21.8565 121.262C22.3802 120.98 22.7885 120.66 23.0814 120.303C23.3743 119.947 23.5207 119.597 23.5207 119.252V118.367C23.5207 118.024 23.3743 117.673 23.0814 117.317C22.7885 116.96 22.3802 116.641 21.8565 116.358C21.3328 116.075 20.6938 115.842 19.9393 115.657C19.1849 115.473 18.3462 115.381 17.4186 115.381ZM56.9866 115.049C56.1834 115.049 55.4157 115.129 54.6834 115.289C53.9556 115.448 53.3077 115.67 52.7486 115.952C52.1894 116.235 51.7412 116.567 51.3994 116.948C51.0577 117.329 50.889 117.741 50.889 118.183V119.068C50.889 119.511 51.0577 119.922 51.3994 120.303C51.7412 120.684 52.1894 121.016 52.7486 121.299C53.3077 121.581 53.9556 121.803 54.6834 121.963C55.4157 122.122 56.1834 122.202 56.9866 122.202C57.7899 122.202 58.5577 122.122 59.2855 121.963C60.0178 121.803 60.6612 121.581 61.2204 121.299C61.784 121.016 62.2322 120.684 62.574 120.303C62.9157 119.922 63.0843 119.511 63.0843 119.068V118.183C63.0843 117.741 62.9157 117.329 62.574 116.948C62.2322 116.567 61.784 116.235 61.2204 115.952C60.6612 115.67 60.0178 115.448 59.2855 115.289C58.5577 115.129 57.7899 115.049 56.9866 115.049ZM17.4186 111.62C19.003 111.62 20.4453 111.78 21.75 112.099C23.0503 112.419 24.1731 112.861 25.1095 113.427C26.0459 113.992 26.7692 114.668 27.2796 115.455C27.7944 116.241 28.0473 117.102 28.0473 118.036V119.584C28.0473 120.518 27.7944 121.379 27.2796 122.165C26.7692 122.952 26.0459 123.628 25.1095 124.193C24.1731 124.759 23.0503 125.201 21.75 125.521C20.4453 125.84 19.003 126 17.4186 126C15.8388 126 14.3965 125.84 13.0917 125.521C11.7914 125.201 10.6687 124.759 9.73227 124.193C8.79588 123.628 8.0725 122.952 7.56215 122.165C7.04735 121.379 6.7944 120.518 6.7944 119.584V118.036C6.7944 117.102 7.04735 116.241 7.56215 115.455C8.0725 114.668 8.79588 113.992 9.73227 113.427C10.6687 112.861 11.7914 112.419 13.0917 112.099C14.3965 111.78 15.8388 111.62 17.4186 111.62ZM56.9866 111.251C58.4955 111.251 59.8935 111.399 61.185 111.694C62.4764 111.989 63.5946 112.419 64.5443 112.984C65.4941 113.55 66.2441 114.238 66.7899 115.049C67.3402 115.86 67.6154 116.782 67.6154 117.814V119.437C67.6154 120.469 67.3402 121.391 66.7899 122.202C66.2441 123.013 65.4941 123.702 64.5443 124.267C63.5946 124.833 62.4764 125.263 61.185 125.557C59.8935 125.853 58.4955 126 56.9866 126C55.4778 126 54.0754 125.853 52.784 125.557C51.497 125.263 50.3743 124.833 49.4246 124.267C48.4749 123.702 47.7293 123.013 47.179 122.202C46.6332 121.391 46.358 120.469 46.358 119.437V117.814C46.358 116.782 46.6332 115.86 47.179 115.049C47.7293 114.238 48.4749 113.55 49.4246 112.984C50.3743 112.419 51.497 111.989 52.784 111.694C54.0754 111.399 55.4778 111.251 56.9866 111.251ZM118.438 104.872H149.556V108.449H136.3V110.883H145.212V119.732H127.167V121.76H146.197V125.263H122.712V116.376H140.756V114.385H122.53V110.883H131.698V108.449H118.438V104.872ZM133.997 94.3268C132.781 94.3268 131.756 94.4007 130.93 94.548C130.101 94.6954 129.435 94.886 128.92 95.1197C128.41 95.353 128.037 95.6113 127.806 95.894C127.575 96.1767 127.46 96.4532 127.46 96.7235V97.2399C127.46 97.5102 127.575 97.7867 127.806 98.0694C128.037 98.3521 128.41 98.6103 128.92 98.8436C129.435 99.0774 130.101 99.2675 130.93 99.4153C131.756 99.5627 132.781 99.6366 133.997 99.6366C135.191 99.6366 136.207 99.5627 137.046 99.4153C137.889 99.2675 138.564 99.0774 139.074 98.8436C139.584 98.6103 139.957 98.3521 140.188 98.0694C140.419 97.7867 140.534 97.5102 140.534 97.2399V96.7235C140.534 96.4532 140.419 96.1767 140.188 95.894C139.957 95.6113 139.584 95.353 139.074 95.1197C138.564 94.886 137.889 94.6954 137.046 94.548C136.207 94.4007 135.191 94.3268 133.997 94.3268ZM86.8003 93.11H91.5089V101.001C91.5089 101.739 91.5399 102.402 91.602 102.992C91.6642 103.582 91.7929 104.141 91.9837 104.669C92.179 105.198 92.4408 105.726 92.7692 106.255C93.0976 106.783 93.5459 107.343 94.105 107.933C94.8817 108.793 95.7337 109.684 96.6613 110.606C97.5843 111.528 98.5251 112.419 99.4748 113.279L96.5148 116.413C95.6849 115.627 94.8817 114.846 94.105 114.072C93.324 113.298 92.5962 112.554 91.9128 111.841C91.2071 111.128 90.608 110.483 90.1243 109.905C89.6361 109.328 89.3299 108.879 89.2101 108.559H89.1391C89.0148 108.904 88.682 109.401 88.1317 110.053C87.5858 110.704 87.0088 111.35 86.3964 111.989C85.7174 112.701 84.9986 113.433 84.2441 114.183C83.4897 114.932 82.5888 115.799 81.5414 116.782L78.5103 113.611C80.5784 111.743 82.4068 109.936 83.9867 108.191C84.5237 107.601 84.9675 107.035 85.3225 106.495C85.6731 105.954 85.9615 105.401 86.179 104.836C86.3964 104.27 86.5562 103.68 86.6538 103.066C86.7515 102.451 86.8003 101.763 86.8003 101.001V93.11ZM40.9171 92.7413H58.4467V96.6865H52.1272V98.9358C52.1272 99.3784 52.1582 99.7839 52.2204 100.153C52.2825 100.521 52.4024 100.878 52.5843 101.222C52.7663 101.566 53.0103 101.904 53.3165 102.236C53.6183 102.568 54.0133 102.918 54.5015 103.287C55.2826 103.877 56.1079 104.479 56.9866 105.094C57.8609 105.708 58.7618 106.311 59.6894 106.9L57.2396 110.182C55.6109 109.1 54.111 108.055 52.7486 107.048C51.9719 106.482 51.3506 106.003 50.889 105.61C50.423 105.217 50.1568 104.921 50.0814 104.725H50.0459C49.9749 104.946 49.6952 105.296 49.207 105.776C48.7189 106.255 48.0489 106.827 47.1968 107.49C46.4202 108.129 45.6213 108.762 44.8047 109.389C43.9881 110.016 43.1184 110.649 42.1953 111.288L39.4926 107.896C40.6598 107.109 41.7603 106.311 42.7988 105.499C43.8328 104.688 44.7382 103.938 45.5193 103.25C46.1494 102.685 46.642 102.052 46.997 101.351C47.352 100.65 47.5252 99.8454 47.5252 98.9358V96.6865H40.9171V92.7413ZM102.905 90.6768H107.543V124.968H102.905V105.057H96.2219V101.001H102.905V90.6768ZM62.9024 90.6768H67.5045V111.067H62.9024V103.066H57.4615V99.1201H62.9024V90.6768ZM23.3388 90.6768H27.9408V111.399H23.3388V104.024H18.0399V100.116H23.3388V90.6768ZM133.997 90.6398C135.679 90.6398 137.201 90.7747 138.564 91.0454C139.926 91.3157 141.089 91.7088 142.052 92.2253C143.015 92.7413 143.76 93.362 144.297 94.0872C144.834 94.8125 145.101 95.6295 145.101 96.5391V97.4242C145.101 98.3338 144.834 99.1508 144.297 99.8761C143.76 100.601 143.015 101.222 142.052 101.739C141.089 102.255 139.926 102.648 138.564 102.918C137.201 103.189 135.679 103.324 133.997 103.324C132.32 103.324 130.797 103.189 129.435 102.918C128.068 102.648 126.905 102.255 125.947 101.739C124.984 101.222 124.234 100.601 123.697 99.8761C123.164 99.1508 122.893 98.3338 122.893 97.4242V96.5391C122.893 95.6295 123.164 94.8125 123.697 94.0872C124.234 93.362 124.984 92.7413 125.947 92.2253C126.905 91.7088 128.068 91.3157 129.435 91.0454C130.797 90.7747 132.32 90.6398 133.997 90.6398ZM8.03698 90.3816H12.6346V94.1425H19.176V98.0511H12.6346V99.7839C12.6346 100.227 12.6657 100.626 12.7278 100.983C12.79 101.339 12.8965 101.677 13.0562 101.996C13.216 102.316 13.4467 102.629 13.7485 102.937C14.0547 103.244 14.4497 103.582 14.9378 103.95C15.6656 104.516 16.4778 105.088 17.3653 105.665C18.2529 106.243 19.1982 106.839 20.1968 107.453L17.787 110.735C17.006 110.243 16.2204 109.734 15.4305 109.205C14.6405 108.676 13.8905 108.166 13.1849 107.675C12.4038 107.109 11.7958 106.661 11.3565 106.329C10.9216 105.997 10.6642 105.733 10.5932 105.536H10.5533C10.4823 105.757 10.176 106.108 9.64348 106.587C9.1065 107.066 8.41422 107.625 7.56215 108.265C6.75446 108.879 5.96447 109.469 5.18784 110.034C4.40678 110.6 3.55476 111.202 2.63168 111.841L0 108.412C1.16716 107.625 2.28108 106.839 3.34173 106.052C4.40238 105.266 5.321 104.54 6.09763 103.877C6.73224 103.311 7.21153 102.722 7.53994 102.107C7.86834 101.492 8.03698 100.718 8.03698 99.7839V98.0511H1.13168V94.1425H8.03698V90.3816Z" fill="white"/>
</g>
</g>
<defs>
<clipPath id="clip0_74_2019">
<rect width="150" height="126" fill="white"/>
</clipPath>
</defs>
</svg>
