<svg width="177" height="91" viewBox="0 0 177 91" fill="none" xmlns="http://www.w3.org/2000/svg">
<path fill-rule="evenodd" clip-rule="evenodd" d="M120.058 42.3494C120.239 20.5424 97.8124 10.1461 82.3092 19.6328C64.0513 -17.3024 13.4872 2.53406 21.4717 40.6411C10.889 42.088 3.70723 49.4407 1.02952 57.9092C-3.12766 71.0547 5.52933 90.6364 22.9441 90.9693C29.5433 91.0952 35.3514 87.2201 39.0853 82.1096C43.0331 87.5098 49.3013 91 56.3554 91C63.413 91 69.6812 87.5098 73.6278 82.1096C77.5734 87.5098 83.8424 91 90.898 91C97.9544 91 104.221 87.5098 108.171 82.1096C111.961 87.2987 117.895 91.066 124.616 90.9842C151.713 90.651 164.2 67.7125 160.863 41.3589C176.142 47.3703 188.616 34.2205 185.527 19.4567C177.922 27.9804 163.999 13.8996 157.314 25.79C150.629 13.8996 136.707 27.9804 129.102 19.4567C126.014 34.2159 138.479 47.3628 153.752 41.3647C153.436 52.9523 146.113 60.8221 136.954 62.0635C135.698 53.7027 130.329 45.881 120.058 42.3494Z" fill="white" fill-opacity="0.1"/>
</svg>
