<svg width="40" height="40" viewBox="0 0 40 40" fill="none" xmlns="http://www.w3.org/2000/svg">
<g clip-path="url(#clip0_74_2231)">
<path d="M27.9045 39.9999H0.782655C0.549296 39.9999 0.360077 39.8107 0.360077 39.5774V3.80307C0.360077 3.56971 0.549217 3.38049 0.782655 3.38049H2.13101L22.821 4.18534C22.933 4.18534 23.0405 4.22987 23.1198 4.30909L27.3984 8.58768C27.4776 8.6669 27.5221 8.7744 27.5221 8.88643L28.327 38.2289V39.5773C28.327 39.8107 28.1379 39.9999 27.9045 39.9999Z" fill="#D8ECFE"/>
<path d="M23.1198 3.50424C23.0405 3.42502 22.933 3.38049 22.821 3.38049H2.13101V36.1968C2.13101 37.3174 3.04265 38.2291 4.1632 38.2291H28.3271V8.88659C28.3271 8.77456 28.2826 8.66706 28.2034 8.58784L23.1198 3.50424Z" fill="#C4E2FF"/>
<path d="M23.861 0H4.16321C3.92985 0 3.74063 0.189219 3.74063 0.422578V36.1969C3.74063 36.4302 3.92985 36.6195 4.16321 36.6195H29.5144H29.5948L31.1241 36.4584C31.3575 36.4584 31.5467 36.2692 31.5467 36.0359C31.5467 36.0359 31.5467 6.23703 31.5467 6.23688L23.861 0Z" fill="#EAF6FF"/>
<path d="M31.7074 6.2368L25.4707 0H25.4706H23.861V5.915C23.861 6.9818 24.7258 7.84656 25.7926 7.84656H29.6149C29.7927 7.84656 29.9369 7.9907 29.9369 8.16852V36.1969C29.9369 36.4302 29.7477 36.6195 29.5143 36.6195H31.285C31.5184 36.6195 31.7076 36.4303 31.7076 36.1969V6.23727C31.7076 6.23711 31.7075 6.23695 31.7074 6.2368Z" fill="#D8ECFE"/>
<path d="M28.8328 5.59612L28.9941 7.84088C28.9944 7.84471 28.9944 7.84854 28.9944 7.85237V8.71151C28.9944 8.80042 28.922 8.87245 28.8327 8.87245H7.53187C7.44257 8.87245 7.37015 8.80042 7.37015 8.71151V3.48284C7.37015 3.39393 7.44257 3.3219 7.53187 3.3219H24.341C24.3448 3.3219 24.3486 3.32206 24.3524 3.32229L26.6346 3.48284C26.7183 3.48284 26.7987 3.5151 26.8589 3.57284L28.7338 5.36417C28.797 5.42495 28.8328 5.50862 28.8328 5.59612Z" fill="#FFE07D"/>
<path d="M28.9945 5.59612C28.9945 5.50862 28.9589 5.42487 28.8959 5.36424L26.3619 3.4119C26.3019 3.35417 26.2219 3.3219 26.1387 3.3219H23.861V5.91502C23.861 6.98182 24.7258 7.84659 25.7926 7.84659L28.9945 7.85237V5.59612Z" fill="#FFD064"/>
<path d="M25.7926 6.237H31.7076C31.7075 6.13036 31.6652 6.02809 31.5898 5.9527L25.7549 0.117935C25.6795 0.0425439 25.5773 0.000200195 25.4706 0.00012207V5.91512C25.4707 6.09286 25.6148 6.237 25.7926 6.237Z" fill="#EAF6FF"/>
<path d="M33.9164 32.1866L32.9579 31.7414L31.876 31.0778C31.7727 31.0144 31.6427 31.0144 31.5394 31.0778L29.338 32.428C29.1234 32.5596 28.8477 32.4052 28.8477 32.1535V19.4128H34.4067V31.9122C34.4066 32.1639 34.1309 32.3182 33.9164 32.1866Z" fill="#FFE07D"/>
<path d="M32.9578 19.4128V31.7414L34.0773 32.4281C34.2919 32.5596 34.5676 32.4053 34.5676 32.1536V19.4128H32.9578Z" fill="#FFD064"/>
<path d="M21.2238 13.803H14.2245C13.8912 13.803 13.6209 13.5328 13.6209 13.1994C13.6209 12.8661 13.8912 12.5958 14.2245 12.5958H21.2238C21.5571 12.5958 21.8273 12.8661 21.8273 13.1994C21.8273 13.5328 21.5571 13.803 21.2238 13.803Z" fill="#D8ECFE"/>
<path d="M26.9654 17.0223H6.96016C6.6268 17.0223 6.35657 16.752 6.35657 16.4187C6.35657 16.0853 6.6268 15.8151 6.96016 15.8151H26.9653C27.2987 15.8151 27.5689 16.0853 27.5689 16.4187C27.5689 16.752 27.2988 17.0223 26.9654 17.0223Z" fill="#D8ECFE"/>
<path d="M19.9833 20.2419H6.96016C6.6268 20.2419 6.35657 19.9716 6.35657 19.6383C6.35657 19.3049 6.6268 19.0347 6.96016 19.0347H19.9833C20.3166 19.0347 20.5869 19.3049 20.5869 19.6383C20.5869 19.9716 20.3166 20.2419 19.9833 20.2419Z" fill="#D8ECFE"/>
<path d="M39.4789 18.6776C39.4789 19.4899 38.5652 20.1479 38.3271 20.8809C38.0805 21.6405 38.4245 22.7083 37.9642 23.3406C37.4995 23.9792 36.5356 23.8188 35.8969 24.2835C35.2646 24.7437 34.919 25.816 34.1593 26.0626C33.4263 26.3006 32.5198 25.6441 31.7075 25.6441C30.8952 25.6441 29.9887 26.3006 29.2557 26.0626C28.4961 25.816 28.1505 24.7437 27.5181 24.2835C26.8795 23.8188 25.7546 23.8181 25.2898 23.1796C25.1916 23.0446 25.1301 23.051 25.0916 22.8836C24.9495 22.2667 25.121 21.4784 24.927 20.8808C24.6891 20.1478 23.7752 19.4899 23.7752 18.6776C23.7752 17.8653 24.689 17.2073 24.927 16.4743C25.1737 15.7147 24.8297 14.6469 25.2899 14.0146C25.7547 13.376 26.8796 13.3754 27.5182 12.9106C28.1505 12.4505 28.4961 11.3782 29.2558 11.1316C29.9888 10.8936 30.8952 11.5501 31.7076 11.5501C32.5199 11.5501 33.4264 10.8935 34.1594 11.1316C34.919 11.3782 35.2646 12.4505 35.897 12.9106C36.0075 12.9911 36.1327 13.0572 36.2664 13.1156C36.9053 13.3943 37.5799 13.4865 37.9643 14.0146C38.4245 14.6469 38.0805 15.7147 38.3271 16.4743C38.5652 17.2073 39.4789 17.8653 39.4789 18.6776Z" fill="#FE99A0"/>
<path d="M39.6399 18.6776C39.6399 17.8653 38.7262 17.2073 38.4881 16.4743C38.2415 15.7147 38.5855 14.6469 38.1253 14.0147C37.7409 13.4865 36.9054 13.3945 36.2665 13.1156C36.4419 13.7867 36.5357 14.4905 36.5357 15.2166C36.5357 15.7889 36.4742 16.3644 36.3638 16.904C35.7026 20.1356 33.1631 22.6654 29.9341 23.3337C29.389 23.4465 28.8253 23.5056 28.2467 23.5056C27.1297 23.5056 26.0643 23.2842 25.0917 22.8836C25.1302 23.0508 25.1918 23.2056 25.29 23.3404C25.7548 23.979 26.8797 23.9797 27.5183 24.4444C28.1506 24.9046 28.4962 25.9769 29.2559 26.2235C29.9888 26.4615 30.8954 25.805 31.7077 25.805C32.5199 25.805 33.4265 26.4615 34.1595 26.2235C34.9191 25.9769 35.2647 24.9046 35.897 24.4444C36.5356 23.9797 37.6605 23.9791 38.1253 23.3404C38.5855 22.7081 38.2415 21.6404 38.4882 20.8808C38.7261 20.1478 39.6399 19.4898 39.6399 18.6776Z" fill="#FD8087"/>
<path d="M36.5278 18.6776C36.5278 21.4286 34.4587 23.4977 31.7077 23.4977C31.0834 23.4977 30.486 23.5439 29.9354 23.3342C28.0594 22.6199 26.7265 20.8044 26.7265 18.6776C26.7265 15.9266 28.9566 13.6964 31.7077 13.6964C33.8345 13.6964 35.6499 15.0293 36.3643 16.9053C36.574 17.4559 36.5278 18.0534 36.5278 18.6776Z" fill="#FFE07D"/>
<path d="M31.3909 21.3271C31.2201 21.3271 31.0568 21.2546 30.9422 21.1272L29.0905 19.0688C28.8676 18.821 28.8877 18.4393 29.1355 18.2164C29.3835 17.9935 29.7651 18.0136 29.988 18.2615L31.3575 19.7839L33.6394 16.8535C33.8442 16.5905 34.2235 16.5433 34.4865 16.7482C34.7495 16.9529 34.7967 17.3322 34.5919 17.5953L31.8672 21.0943C31.7574 21.2353 31.5909 21.3204 31.4123 21.3267C31.4052 21.3269 31.398 21.3271 31.3909 21.3271Z" fill="#918291"/>
<path d="M36.3638 16.9039C35.6966 20.1264 33.1566 22.6664 29.9341 23.3336C30.4848 23.5433 31.0834 23.6586 31.7077 23.6586C34.4588 23.6586 36.6889 21.4285 36.6889 18.6774C36.6888 18.0532 36.5735 17.4546 36.3638 16.9039Z" fill="#FFD064"/>
<path d="M10.3029 30.3488C9.96953 30.3488 9.6993 30.0785 9.6993 29.7452V26.5934L10.5026 26.4918L10.9066 26.5934V29.7452C10.9065 30.0785 10.6362 30.3488 10.3029 30.3488Z" fill="#7A6D79"/>
<path d="M22.9091 32.2773C22.496 32.4337 22.2386 32.7318 21.8162 32.8496C21.7678 32.8631 21.7194 32.8763 21.6709 32.8893C18.714 33.6813 15.5695 33.5309 12.6838 32.4382C12.3244 32.3021 12.0866 31.9577 12.0866 31.5734V29.1825L12.2476 25.7765H23.5065V31.4123C23.5064 31.7968 23.2686 32.1412 22.9091 32.2773Z" fill="#7A6D79"/>
<path d="M12.0866 25.7765V29.1825L17.1471 31.1318C17.2945 31.1886 17.4472 31.2327 17.6037 31.2539C17.9398 31.2996 18.2719 31.2609 18.5816 31.1415L21.7381 29.9256C21.8921 29.8663 22.0577 29.9798 22.0577 30.1448V32.1367C22.0577 32.4398 21.9094 32.7175 21.6706 32.8884C22.1424 32.762 22.6097 32.6125 23.0701 32.4381C23.4295 32.302 23.6673 31.8772 23.6673 31.4928V29.1823V25.7765H12.0866Z" fill="#685E68"/>
<path d="M17.6641 29.8647L9.8889 26.8697C9.63601 26.7723 9.63601 26.4145 9.8889 26.3171L17.6641 23.3221C17.8012 23.2693 17.9529 23.2693 18.0898 23.3221L25.8651 26.3171C26.118 26.4145 26.118 26.7723 25.8651 26.8697L18.0898 29.8647C17.9528 29.9175 17.8011 29.9175 17.6641 29.8647Z" fill="#918291"/>
</g>
<defs>
<clipPath id="clip0_74_2231">
<rect width="40" height="40" fill="white"/>
</clipPath>
</defs>
</svg>
