<svg width="40" height="40" viewBox="0 0 40 40" fill="none" xmlns="http://www.w3.org/2000/svg">
<g clip-path="url(#clip0_74_2187)">
<path d="M30.4909 9.7825H18.2601V2.41445C18.2601 1.08102 19.3411 0 20.6746 0H28.0764C29.4099 0 30.4909 1.08102 30.4909 2.41445V9.7825Z" fill="#E19974"/>
<path d="M28.0764 0H25.662C26.9955 0 28.0764 1.08102 28.0764 2.41445V9.7825H30.4909V2.41445C30.4909 1.08102 29.4099 0 28.0764 0Z" fill="#DC8758"/>
<path d="M35.7166 34.7552H39.8913L37.367 24.0995C36.996 22.5335 35.7663 21.3189 34.202 20.9734L28.576 19.7306L27.1486 19.682C26.5104 19.5411 26.0558 18.9728 26.0558 18.316V14.056H22.6953V18.316C22.6953 18.9727 22.2407 19.541 21.6025 19.682L20.1752 19.7306L14.5491 20.9734C12.9848 21.3189 11.755 22.5335 11.3841 24.0995L8.85977 34.7552" fill="#B3DAFE"/>
<path d="M26.9928 21.1215L31.7875 22.1806C33.3518 22.5262 34.5816 23.7408 34.9525 25.3068L37.1908 34.7553H39.8913L37.367 24.0996C36.9959 22.5336 35.7663 21.319 34.202 20.9734L28.5759 19.7307L26.9928 21.1215Z" fill="#8AC9FE"/>
<path d="M38.8559 36.9124L33.2048 38.6364L32.4752 35.1201L38.012 33.7864C38.8777 33.5779 39.7478 34.1142 39.9553 34.9844C40.1541 35.8182 39.6722 36.6633 38.8559 36.9124Z" fill="#FFCEBF"/>
<path d="M39.9553 34.9843C39.7478 34.1141 38.8777 33.5777 38.012 33.7863L36.9172 34.05C37.2187 34.2689 37.4473 34.5923 37.5409 34.9843C37.7397 35.8181 37.2577 36.6632 36.4414 36.9123L33.0611 37.9435L33.2048 38.6363L38.8559 36.9122C39.6722 36.6633 40.1541 35.8181 39.9553 34.9843Z" fill="#FFB09E"/>
<path d="M9.89523 36.9124L15.5462 38.6364L16.2759 35.1201L10.7391 33.7864C9.87336 33.5779 9.00328 34.1142 8.79578 34.9844C8.59703 35.8182 9.07898 36.6633 9.89523 36.9124Z" fill="#FFCEBF"/>
<path d="M20.1751 19.7306C21.1415 20.9993 22.663 21.8182 24.3755 21.8182C26.088 21.8182 27.6096 20.9993 28.576 19.7306L27.1487 19.682C26.5105 19.541 26.0559 18.9727 26.0559 18.316V14.056H21.4881V18.316C21.4881 18.9727 21.0335 19.541 20.3953 19.682L20.1751 19.7306Z" fill="#FFCEBF"/>
<path d="M25.9413 20.8892L26.9928 21.1215C27.6086 20.7679 28.147 20.2937 28.5759 19.7306L28.3558 19.682C27.7176 19.541 27.263 18.9727 27.263 18.316V14.056H24.8485V19.5233C24.8485 20.1799 25.3031 20.7482 25.9413 20.8892Z" fill="#FFB09E"/>
<path d="M30.4909 7.65825C29.9675 7.50739 29.1064 7.18693 28.2376 6.48419C27.4752 5.86755 26.9959 5.19021 26.7084 4.69146C26.621 4.53997 26.4179 4.5056 26.2866 4.62068C25.708 5.12755 24.9816 5.66911 24.0932 6.15396C21.7705 7.42185 19.5541 7.64036 18.26 7.65817V11.577C18.26 13.9108 19.5541 15.9408 21.4605 16.9815C22.3269 17.4547 23.2036 17.4221 24.259 17.4221C24.259 17.4221 26.4053 17.4596 27.2661 16.9947C29.1857 15.9579 30.4909 13.9207 30.4909 11.577V7.65825Z" fill="#FFCEBF"/>
<path d="M28.2377 6.48423C27.4735 5.86619 26.9938 5.18728 26.7065 4.68822C26.6198 4.53759 26.4175 4.50603 26.2868 4.62064C25.9083 4.95228 25.4651 5.29861 24.9559 5.63439C25.1931 5.91541 25.4791 6.20603 25.8232 6.48431C26.2174 6.80322 26.6101 7.04337 26.9704 7.2247C27.6448 7.56416 28.0765 8.24751 28.0765 9.00244V11.5772C28.0948 11.964 28.148 13.9256 26.6721 15.4961C24.6397 17.6588 21.6342 17.0297 21.4881 16.9965C22.0846 17.3091 22.8823 17.6158 23.8459 17.7006C24.0293 17.7167 24.2062 17.7237 24.3756 17.7235C27.753 17.7235 30.491 14.9717 30.491 11.5771V7.6583C29.9675 7.50736 29.1064 7.18689 28.2377 6.48423Z" fill="#FFB09E"/>
<path d="M21.4249 11.2347C21.0915 11.2347 20.8213 10.9644 20.8213 10.6311V9.4449C20.8213 9.11154 21.0916 8.84131 21.4249 8.84131C21.7583 8.84131 22.0285 9.11154 22.0285 9.4449V10.6311C22.0286 10.9644 21.7584 11.2347 21.4249 11.2347Z" fill="#3F6E90"/>
<path d="M27.3261 11.2347C26.9926 11.2347 26.7225 10.9644 26.7225 10.6311V9.4449C26.7225 9.11154 26.9927 8.84131 27.3261 8.84131C27.6594 8.84131 27.9297 9.11154 27.9297 9.4449V10.6311C27.9297 10.9644 27.6594 11.2347 27.3261 11.2347Z" fill="#3F6E90"/>
<path d="M24.3755 15.6152C24.3648 15.6152 24.3542 15.6151 24.3435 15.615C23.842 15.6098 23.3443 15.4786 22.9038 15.2359C22.612 15.075 22.5057 14.7078 22.6666 14.4159C22.8276 14.1239 23.1948 14.0176 23.4867 14.1787C23.6723 14.281 23.9739 14.4039 24.3562 14.4079C24.3627 14.408 24.3691 14.408 24.3755 14.408C24.7656 14.408 25.0735 14.2839 25.2642 14.1787C25.5562 14.0178 25.9233 14.1239 26.0843 14.4159C26.2452 14.7078 26.139 15.075 25.8471 15.2359C25.5316 15.4098 25.022 15.6152 24.3755 15.6152Z" fill="#FFB09E"/>
<path d="M31.2384 10.5597H30.4909V7.65833H31.2384C32.0376 7.65833 32.6854 8.30622 32.6854 9.10536V9.1127C32.6855 9.91192 32.0376 10.5597 31.2384 10.5597Z" fill="#FFCEBF"/>
<path d="M17.5126 10.5597H18.2601V7.65833H17.5126C16.7134 7.65833 16.0656 8.30622 16.0656 9.10536V9.1127C16.0656 9.91192 16.7134 10.5597 17.5126 10.5597Z" fill="#FFB09E"/>
<path d="M14.3942 37.5856H34.3568C34.7476 37.5856 35.0644 37.9459 35.0644 38.3904V39.1953C35.0644 39.6398 34.7476 40.0001 34.3568 40.0001H14.3942C14.0034 40.0001 13.6866 39.6398 13.6866 39.1953V38.3904C13.6866 37.9459 14.0034 37.5856 14.3942 37.5856Z" fill="#355F7F"/>
<path d="M34.3568 37.5856H31.9424C32.3331 37.5856 32.6499 37.9459 32.6499 38.3904V39.1953C32.6499 39.6398 32.3331 40.0001 31.9424 40.0001H34.3568C34.7476 40.0001 35.0644 39.6398 35.0644 39.1953V38.3904C35.0644 37.9459 34.7476 37.5856 34.3568 37.5856Z" fill="#305972"/>
<path d="M32.9363 37.5856H15.8148C14.6395 37.5856 13.6866 36.6328 13.6866 35.4575V25.8459C13.6866 24.6706 14.6395 23.7178 15.8148 23.7178H32.9363C34.1116 23.7178 35.0644 24.6706 35.0644 25.8459V35.4575C35.0644 36.6328 34.1116 37.5856 32.9363 37.5856Z" fill="#3F6E90"/>
<path d="M32.9363 23.7178H30.5218C31.6971 23.7178 32.6499 24.6706 32.6499 25.8459V35.4575C32.6499 36.6328 31.6971 37.5856 30.5218 37.5856H32.9363C34.1116 37.5856 35.0644 36.6328 35.0644 35.4575V25.8459C35.0644 24.6706 34.1116 23.7178 32.9363 23.7178Z" fill="#355F7F"/>
<path d="M24.3755 33.244C25.6455 33.244 26.6751 32.2092 26.6751 30.9327C26.6751 29.6562 25.6455 28.6213 24.3755 28.6213C23.1054 28.6213 22.0759 29.6562 22.0759 30.9327C22.0759 32.2092 23.1054 33.244 24.3755 33.244Z" fill="white"/>
<path d="M10.4865 17.3758H9.68125C9.49922 17.3758 9.35172 17.5233 9.35172 17.7053V18.7372C9.35172 19.0004 9.05836 19.1574 8.83937 19.0115L7.54055 17.4865C7.43227 17.4143 7.30508 17.3758 7.17492 17.3758H1.97727C0.885234 17.3758 0 16.4905 0 15.3986V10.5605C0 9.46849 0.885234 8.58325 1.97727 8.58325H10.4865C11.5785 8.58325 12.4637 9.46849 12.4637 10.5605V15.3986C12.4637 16.4905 11.5784 17.3758 10.4865 17.3758Z" fill="#B3DAFE"/>
<path d="M10.4865 8.58325H8.07203C9.16398 8.58325 10.0492 9.46849 10.0492 10.5605V15.3986C10.0492 16.4905 9.16398 17.3758 8.07203 17.3758H7.26672C7.25344 17.3758 7.24078 17.3782 7.22789 17.3797C7.33922 17.3888 7.44703 17.4242 7.54047 17.4865L8.8393 19.0115C9.05828 19.1575 9.35164 19.0005 9.35164 18.7373V17.7054C9.35164 17.5233 9.49914 17.3758 9.68117 17.3758H10.4864C11.5784 17.3758 12.4636 16.4906 12.4636 15.3986V10.5605C12.4637 9.46849 11.5784 8.58325 10.4865 8.58325Z" fill="#8AC9FE"/>
<path d="M9.3718 12.3759H3.09187C2.75852 12.3759 2.48828 12.1057 2.48828 11.7723C2.48828 11.4389 2.75852 11.1687 3.09187 11.1687H9.3718C9.70516 11.1687 9.97539 11.4389 9.97539 11.7723C9.97547 12.1057 9.70516 12.3759 9.3718 12.3759Z" fill="#D8ECFE"/>
<path d="M9.3718 14.7903H3.09187C2.75852 14.7903 2.48828 14.5201 2.48828 14.1867C2.48828 13.8534 2.75852 13.5831 3.09187 13.5831H9.3718C9.70516 13.5831 9.97539 13.8534 9.97539 14.1867C9.97539 14.5201 9.70516 14.7903 9.3718 14.7903Z" fill="#D8ECFE"/>
</g>
<defs>
<clipPath id="clip0_74_2187">
<rect width="40" height="40" fill="white"/>
</clipPath>
</defs>
</svg>
