<svg width="40" height="40" viewBox="0 0 40 40" fill="none" xmlns="http://www.w3.org/2000/svg">
<g clip-path="url(#clip0_74_2150)">
<path d="M13.3307 16.9134C12.9942 16.9134 12.7214 17.1777 12.7214 17.5036C12.7214 18.3429 12.7214 34.004 12.7214 34.9942V35.2357C15.1807 34.8412 17.7568 34.6311 20.411 34.6311C20.9533 34.6311 21.4919 34.6407 22.0273 34.658V34.4165V17.1548V16.9133H13.3307V16.9134Z" fill="#0E7C95"/>
<path d="M14.3214 34.9942C14.3214 34.0047 14.3214 18.3429 14.3214 17.5037C14.3214 17.1777 14.5942 16.9135 14.9307 16.9135H13.3307C12.9942 16.9135 12.7214 17.1777 12.7214 17.5037V17.7452V34.9943V35.2358C13.2494 35.1511 13.783 35.0755 14.3214 35.0081V34.9942Z" fill="#0A6D77"/>
<path d="M22.011 34.631C21.7444 34.631 21.479 34.6337 21.2141 34.6379C21.486 34.6425 21.7571 34.6492 22.0273 34.6579V34.6311C22.0219 34.6311 22.0164 34.631 22.011 34.631Z" fill="#0A6D77"/>
<path d="M33.3375 6.49377H24.643C24.2425 6.49377 23.9148 6.82346 23.9148 7.22643C23.9148 10.0281 23.9148 7.41659 23.9148 10.3134H34.0656C34.0656 9.04948 34.0656 8.75034 34.0656 7.46784V7.22635C34.0656 6.82346 33.738 6.49377 33.3375 6.49377Z" fill="#A5AFAF"/>
<path d="M25.5147 7.22643C25.5147 6.82346 25.8423 6.49377 26.2429 6.49377H24.6429C24.2424 6.49377 23.9147 6.82346 23.9147 7.22643C23.9147 10.0281 23.9147 7.41659 23.9147 10.3134H25.5147V10.0719C25.5147 8.78995 25.5147 8.4912 25.5147 7.22643Z" fill="#98A0A0"/>
<path d="M35.9613 10.0719H22.2547C21.9381 10.0719 21.6813 10.3302 21.6813 10.6487V34.4164L36.5504 37.7984V25.9538C36.5541 25.9538 36.5576 25.9541 36.5613 25.9541V10.6756C36.5613 10.3421 36.2927 10.0719 35.9613 10.0719Z" fill="#C0CDCE"/>
<path d="M23.2813 10.6725C23.2813 10.3408 23.5486 10.0719 23.8783 10.0719H22.2547C21.9381 10.0719 21.6813 10.3302 21.6813 10.6487V34.4164L23.2813 34.7803V10.6725Z" fill="#AFBCBC"/>
<path d="M7.30796 26.5231C5.52952 26.6352 4.4571 28.6673 5.46147 30.2215C5.74999 30.668 5.04389 30.8684 5.07874 32.0632C5.11452 33.2895 6.09069 34.3078 7.30772 34.3846C8.69389 34.4721 9.84514 33.367 9.84514 31.9912C9.84514 30.8241 9.17569 30.6395 9.42467 30.2766C10.5462 28.6417 9.30413 26.3973 7.30796 26.5231Z" fill="#4CE079"/>
<path d="M6.67875 32.0633C6.6639 31.5547 6.80672 31.0806 7.06148 30.6864C7.15297 30.5447 7.15297 30.3632 7.06148 30.2216C6.21765 28.9158 6.82742 27.1771 8.2625 26.6577C6.10922 25.8846 4.23461 28.3229 5.46148 30.2216C5.74992 30.6681 5.0439 30.8685 5.07875 32.0633C5.11453 33.2896 6.0907 34.3079 7.30773 34.3847C7.64429 34.406 7.96672 34.3564 8.2625 34.2503C7.36226 33.9245 6.70789 33.0632 6.67875 32.0633Z" fill="#32CC65"/>
<path d="M7.46142 37.7985C7.13009 37.7985 6.86142 37.5283 6.86142 37.1948V30.8111C6.86142 30.4777 7.13001 30.2074 7.46142 30.2074C7.79275 30.2074 8.06142 30.4776 8.06142 30.8111V37.1948C8.06142 37.5283 7.79283 37.7985 7.46142 37.7985Z" fill="#9B6F43"/>
<path d="M39.5783 40C40.0098 40 40.1623 39.4229 39.787 39.2088C34.5273 36.2079 27.6511 34.3896 20.1252 34.3896C12.5949 34.3896 5.71524 36.21 0.454379 39.2139C0.0815668 39.4268 0.232973 40 0.661645 40H39.5783Z" fill="#29B288"/>
<path d="M3.6543 39.2138C8.54008 36.424 14.8225 34.6562 21.7251 34.4181C21.1952 34.3998 20.662 34.3895 20.1251 34.3895C12.5948 34.3895 5.71516 36.2098 0.454297 39.2138C0.0815625 39.4267 0.233047 40 0.661641 40H3.86164C3.43297 40 3.28148 39.4267 3.6543 39.2138Z" fill="#21A378"/>
<path d="M10.9338 3.88562C11.9107 3.55766 12.9941 3.90992 13.5912 4.77703C14.1176 4.64008 14.6779 4.65258 15.1995 4.81648C16.452 2.70648 14.9414 0 12.4795 0C11.2398 0 10.1673 0.717109 9.64743 1.76125C10.2827 2.30086 10.7441 3.04125 10.9338 3.88562Z" fill="#FAC149"/>
<path d="M14.2563 2.93011C13.6563 2.42956 12.9194 2.12315 12.1365 2.05394C11.8077 1.43667 11.3658 0.898076 10.8434 0.459717C10.333 0.770811 9.91602 1.22175 9.64743 1.7612C10.2827 2.30081 10.7441 3.0412 10.9338 3.88565C11.9109 3.55769 12.9941 3.90995 13.5913 4.77706C14.1177 4.64011 14.678 4.65261 15.1995 4.81659C15.5005 4.30956 15.6574 3.72987 15.6441 3.11519C15.1879 2.97831 14.7149 2.91855 14.2563 2.93011Z" fill="#F8A748"/>
<path d="M19.2173 20.8171H15.1773C14.846 20.8171 14.5773 20.5468 14.5773 20.2134C14.5773 19.8801 14.8459 19.6097 15.1773 19.6097H19.2173C19.5487 19.6097 19.8173 19.88 19.8173 20.2134C19.8173 20.5468 19.5487 20.8171 19.2173 20.8171Z" fill="#A4D9F4"/>
<path d="M19.2173 23.7581H15.1773C14.846 23.7581 14.5773 23.4879 14.5773 23.1545C14.5773 22.821 14.8459 22.5508 15.1773 22.5508H19.2173C19.5487 22.5508 19.8173 22.821 19.8173 23.1545C19.8173 23.4879 19.5487 23.7581 19.2173 23.7581Z" fill="#A4D9F4"/>
<path d="M19.2173 26.6992H15.1773C14.846 26.6992 14.5773 26.4289 14.5773 26.0955C14.5773 25.7621 14.8459 25.4918 15.1773 25.4918H19.2173C19.5487 25.4918 19.8173 25.7621 19.8173 26.0955C19.8173 26.4289 19.5487 26.6992 19.2173 26.6992Z" fill="#A4D9F4"/>
<path d="M19.2173 29.6403H15.1773C14.846 29.6403 14.5773 29.3701 14.5773 29.0367C14.5773 28.7033 14.8459 28.433 15.1773 28.433H19.2173C19.5487 28.433 19.8173 28.7032 19.8173 29.0367C19.8173 29.3701 19.5487 29.6403 19.2173 29.6403Z" fill="#A4D9F4"/>
<path d="M19.2173 32.5812H15.1773C14.846 32.5812 14.5773 32.311 14.5773 31.9776C14.5773 31.6442 14.8459 31.3739 15.1773 31.3739H19.2173C19.5487 31.3739 19.8173 31.6441 19.8173 31.9776C19.8173 32.311 19.5487 32.5812 19.2173 32.5812Z" fill="#A4D9F4"/>
<path d="M33.8413 20.8171H24.1391C23.8078 20.8171 23.5391 20.5468 23.5391 20.2134C23.5391 19.8801 23.8077 19.6097 24.1391 19.6097H33.8413C34.1726 19.6097 34.4413 19.88 34.4413 20.2134C34.4413 20.5468 34.1726 20.8171 33.8413 20.8171Z" fill="#A5AFAF"/>
<path d="M33.8413 23.7581H24.1391C23.8078 23.7581 23.5391 23.4879 23.5391 23.1545C23.5391 22.821 23.8077 22.5508 24.1391 22.5508H33.8413C34.1726 22.5508 34.4413 22.821 34.4413 23.1545C34.4413 23.4879 34.1726 23.7581 33.8413 23.7581Z" fill="#A5AFAF"/>
<path d="M33.8413 26.6992H24.1391C23.8078 26.6992 23.5391 26.4289 23.5391 26.0955C23.5391 25.7621 23.8077 25.4918 24.1391 25.4918H33.8413C34.1726 25.4918 34.4413 25.7621 34.4413 26.0955C34.4413 26.4289 34.1726 26.6992 33.8413 26.6992Z" fill="#A5AFAF"/>
<path d="M33.8413 17.876H24.1391C23.8078 17.876 23.5391 17.6058 23.5391 17.2724C23.5391 16.939 23.8077 16.6687 24.1391 16.6687H33.8413C34.1726 16.6687 34.4413 16.9389 34.4413 17.2724C34.4413 17.6058 34.1726 17.876 33.8413 17.876Z" fill="#A5AFAF"/>
<path d="M33.8413 14.8958H24.1391C23.8078 14.8958 23.5391 14.6256 23.5391 14.2921C23.5391 13.9588 23.8077 13.6885 24.1391 13.6885H33.8413C34.1726 13.6885 34.4413 13.9587 34.4413 14.2921C34.4413 14.6256 34.1726 14.8958 33.8413 14.8958Z" fill="#A5AFAF"/>
<path d="M33.1008 29.6403H24.1391C23.8078 29.6403 23.5391 29.3701 23.5391 29.0367C23.5391 28.7033 23.8077 28.433 24.1391 28.433H33.1008C33.4322 28.433 33.7008 28.7032 33.7008 29.0367C33.7008 29.3701 33.4322 29.6403 33.1008 29.6403Z" fill="#A5AFAF"/>
<path d="M33.6619 32.5812H24.1391C23.8078 32.5812 23.5391 32.311 23.5391 31.9776C23.5391 31.6442 23.8077 31.3739 24.1391 31.3739H33.6619C33.9932 31.3739 34.2619 31.6441 34.2619 31.9776C34.2619 32.311 33.9933 32.5812 33.6619 32.5812Z" fill="#A5AFAF"/>
<path d="M40 29.4245C40 27.4633 38.383 25.8819 36.4172 25.9564C34.6133 26.0247 33.1498 27.515 33.1021 29.3305C33.0813 30.121 33.3237 30.8536 33.747 31.4465C33.8341 31.5683 33.8341 31.7301 33.747 31.8519C33.3237 32.4447 33.0814 33.1772 33.1021 33.9676C33.1497 35.7831 34.613 37.2735 36.4169 37.3421C38.3828 37.4168 40 35.8354 40 33.874C40 33.1426 39.7749 32.4644 39.391 31.905C39.2852 31.7509 39.2852 31.5476 39.391 31.3935C39.7749 30.834 40 30.1558 40 29.4245Z" fill="#4CE079"/>
<path d="M34.702 33.9675C34.6813 33.1771 34.9237 32.4448 35.3469 31.8519C35.434 31.73 35.434 31.5683 35.3469 31.4464C34.9236 30.8535 34.6812 30.121 34.702 29.3305C34.7437 27.7447 35.8655 26.4073 37.3508 26.0486C37.0526 25.9773 36.7398 25.9441 36.4172 25.9563C34.6133 26.0247 33.1498 27.5149 33.1021 29.3305C33.0813 30.121 33.3237 30.8535 33.747 31.4464C33.8341 31.5683 33.8341 31.73 33.747 31.8519C33.3237 32.4447 33.0814 33.1771 33.1021 33.9675C33.1496 35.7831 34.613 37.2735 36.4168 37.342C36.7395 37.3543 37.0525 37.3212 37.3508 37.2498C35.8654 36.891 34.7436 35.5534 34.702 33.9675Z" fill="#32CC65"/>
<path d="M35.0115 34.0111L35.9504 34.689V40H37.1504V30.1939C37.1504 29.8605 36.8818 29.5902 36.5504 29.5902C36.2191 29.5902 35.9504 29.8604 35.9504 30.1939V33.2031L35.711 33.0303C35.4419 32.8359 35.0669 32.8979 34.8737 33.1688C34.6806 33.4397 34.7423 33.8168 35.0115 34.0111Z" fill="#9B6F43"/>
<path d="M17.1483 6.82961C16.9336 5.69461 16.0337 4.79899 14.9045 4.58868C13.9855 4.41758 13.7632 4.74821 13.5363 4.47274C13.0306 3.85891 12.2531 3.56094 11.4792 3.67094C11.2524 3.70313 11.0378 3.57321 10.9624 3.35571C10.4494 1.87579 9.05079 0.813599 7.40486 0.813599C5.34814 0.813599 3.67728 2.47196 3.63876 4.53211C3.63845 4.53313 3.63798 4.53376 3.63767 4.53485C3.59689 4.68461 3.48681 4.68625 3.43306 4.67727C3.42329 4.675 3.41353 4.67243 3.40376 4.67024C3.40337 4.67008 3.40267 4.66985 3.40267 4.66985L3.40259 4.66993C3.14384 4.61297 2.87173 4.59165 2.5915 4.61227C1.21689 4.71344 0.109231 5.82649 0.00790294 7.2093C-0.113191 8.8625 1.184 10.2416 2.8015 10.2416C2.97689 10.2416 14.2738 10.2416 14.3674 10.2416C16.1147 10.2416 17.4927 8.6504 17.1483 6.82961Z" fill="#A4D9F4"/>
<path d="M4.25993 4.46341C4.54759 4.44224 4.82689 4.46411 5.09251 4.52255L5.09259 4.52247C5.09259 4.52247 5.09329 4.5227 5.09376 4.52286C5.10384 4.52513 5.11384 4.52771 5.12384 4.53005C5.179 4.53927 5.29197 4.53755 5.33384 4.38388C5.33415 4.38278 5.33462 4.38216 5.33493 4.38106C5.36517 2.76653 6.37251 1.39349 7.78665 0.833721C7.66103 0.820986 7.53376 0.813721 7.4047 0.813721C5.34798 0.813721 3.67712 2.47208 3.63861 4.53224C3.63829 4.53325 3.63782 4.53388 3.63751 4.53497C3.63212 4.55466 3.62548 4.57153 3.61798 4.58638C3.82337 4.52169 4.03822 4.47966 4.25993 4.46341Z" fill="#77CFF2"/>
<path d="M1.60806 7.129C1.68962 6.01587 2.40657 5.07329 3.39259 4.66822C3.13673 4.6129 2.86806 4.59204 2.59134 4.61236C1.21689 4.71345 0.109231 5.8265 0.00790294 7.20931C-0.113191 8.86251 1.184 10.2416 2.8015 10.2416C4.9354 10.2416 4.03579 10.2416 4.47564 10.2416C2.81532 10.2416 1.48368 8.82595 1.60806 7.129Z" fill="#77CFF2"/>
</g>
<defs>
<clipPath id="clip0_74_2150">
<rect width="40" height="40" fill="white"/>
</clipPath>
</defs>
</svg>
