<svg width="40" height="40" viewBox="0 0 40 40" fill="none" xmlns="http://www.w3.org/2000/svg">
<path fill-rule="evenodd" clip-rule="evenodd" d="M39.9811 27.1903V5.1575C39.9811 4.32711 39.3013 3.64954 38.471 3.64954C26.15 3.64954 13.829 3.64954 1.50798 3.64954C0.677589 3.64954 9.15527e-05 4.32711 9.15527e-05 5.1575V27.1904C6.49101 27.1904 12.9818 29.9219 19.4728 29.9219C26.3088 29.9218 39.9811 27.1903 39.9811 27.1903Z" fill="#9FD4FE"/>
<path fill-rule="evenodd" clip-rule="evenodd" d="M13.9817 9.27295C10.3933 9.82959 10.6899 14.301 10.1493 17.1207C10.0169 17.8164 10.4139 18.2864 11.1347 18.1085L14.7094 17.2233C15.7611 15.4188 16.3178 12.9436 13.9817 9.27295Z" fill="#BEB9DD"/>
<path fill-rule="evenodd" clip-rule="evenodd" d="M19.4728 15.3116L14.4039 16.117C14.4951 16.4842 14.5978 16.8538 14.7096 17.2234C14.8396 17.6545 14.9856 18.088 15.143 18.5214C15.4213 19.2834 15.2571 19.1944 16.0396 19.1944H16.5072H19.4728V15.3116H19.4728Z" fill="#375E7D"/>
<path fill-rule="evenodd" clip-rule="evenodd" d="M20.5061 15.3116V19.1944H23.4717H23.9416C24.7241 19.1944 24.5598 19.2834 24.8382 18.5215C24.9956 18.088 25.1393 17.6546 25.2694 17.2234C25.3834 16.8538 25.4838 16.4843 25.5751 16.117L20.5061 15.3116Z" fill="#375E7D"/>
<path fill-rule="evenodd" clip-rule="evenodd" d="M25.2694 17.2233L28.8441 18.1085C29.5649 18.2864 29.9641 17.8164 29.8319 17.1207C29.2912 14.301 29.5855 9.82959 25.9994 9.27295C25.1439 11.479 23.9029 13.8835 25.2694 17.2233Z" fill="#BEB9DD"/>
<path fill-rule="evenodd" clip-rule="evenodd" d="M23.4717 19.1943C20.0544 19.1943 19.9266 19.1943 16.507 19.1943C15.5695 20.0636 15.371 21.43 15.517 22.6117C17.2758 25.4565 18.6673 25.4565 20.011 25.4565C22.2238 25.452 23.369 22.9949 24.464 22.6117C24.6078 21.43 24.4116 20.0636 23.4717 19.1943Z" fill="#EB5468"/>
<path fill-rule="evenodd" clip-rule="evenodd" d="M24.4641 22.6118C23.0063 22.3677 21.3524 22.9426 19.9906 24.4163C18.6287 22.9426 16.9725 22.3677 15.5171 22.6118C14.5886 22.7692 13.74 23.2551 13.0989 24.0536C10.5371 23.5859 7.50076 24.4984 6.49014 27.1904L19.7328 28.6254L33.4909 27.1904C32.4803 24.4985 29.4417 23.586 26.8821 24.0537C26.2389 23.2551 25.3926 22.7692 24.4641 22.6118Z" fill="#EFF6FF"/>
<path fill-rule="evenodd" clip-rule="evenodd" d="M12.0655 16.0803L10.22 16.5366C10.188 16.7396 10.1857 16.9313 10.1493 17.1206C10.0169 17.8164 10.4139 18.2864 11.1347 18.1084L14.7094 17.2232C14.5976 16.8536 14.4949 16.4841 14.4037 16.1168C13.8197 13.7671 13.6554 11.4584 13.9817 9.27295C13.4639 9.35279 13.0281 9.51475 12.6585 9.7406C11.9833 10.1535 12.4783 14.3443 12.6403 15.0013C12.9438 16.2196 13.1833 15.8021 12.0655 16.0803Z" fill="#A7A2D3"/>
<path fill-rule="evenodd" clip-rule="evenodd" d="M27.1673 16.3199L25.6206 15.9366C25.6047 15.9959 25.5909 16.0576 25.575 16.1169C25.4837 16.4841 25.3833 16.8537 25.2693 17.2233L28.844 18.1084C29.5648 18.2864 29.964 17.8164 29.8318 17.1206C29.3482 14.602 29.5329 10.7649 27.0213 9.57861C27.8061 11.2645 27.822 13.6074 28.1528 15.332C28.2875 16.0257 27.8883 16.4979 27.1673 16.3199Z" fill="#A7A2D3"/>
<path fill-rule="evenodd" clip-rule="evenodd" d="M25.5751 16.1169H23.4444C23.3531 16.4842 23.2505 16.8538 23.1387 17.2233C23.0087 17.6545 22.8627 18.088 22.7052 18.5214C22.5068 19.0666 22.5342 19.1762 22.2787 19.1944H23.4718H23.9417C24.7242 19.1944 24.5599 19.2833 24.8383 18.5214C24.9957 18.088 25.1394 17.6545 25.2695 17.2233C25.3834 16.8537 25.4838 16.4842 25.5751 16.1169Z" fill="#2B4D66"/>
<path fill-rule="evenodd" clip-rule="evenodd" d="M13.9818 9.273C13.6555 11.4585 13.8198 13.7672 14.4038 16.1169H25.5751C26.1613 13.7671 26.3234 11.4585 25.9994 9.273C25.7028 7.2723 24.9956 5.37426 23.8299 3.64958C23.0863 2.54997 22.1577 1.52115 21.0309 0.576619C20.1138 -0.192206 19.8674 -0.192206 18.9481 0.576619C17.8211 1.52107 16.8927 2.54997 16.1513 3.64958C14.9855 5.37426 14.2783 7.2723 13.9818 9.273Z" fill="#FFD772"/>
<path fill-rule="evenodd" clip-rule="evenodd" d="M18.9229 0.59951C20.0407 1.53716 20.9601 2.55919 21.6969 3.64966C22.8626 5.37434 23.5698 7.27238 23.8663 9.27307C24.1926 11.4585 24.0283 13.7673 23.4443 16.117H25.575L25.6206 15.9367C26.1681 13.6486 26.3141 11.4015 25.9993 9.27299C25.7027 7.2723 24.9955 5.37426 23.8298 3.64958C23.0862 2.54997 22.1577 1.52115 21.0308 0.576619C20.1138 -0.192206 19.8674 -0.192206 18.948 0.576619C18.9412 0.583494 18.9321 0.592635 18.9229 0.59951Z" fill="#FBBA58"/>
<path fill-rule="evenodd" clip-rule="evenodd" d="M21.6171 19.1943C22.3288 20.116 22.6026 21.4323 22.6231 22.7258C23.2482 22.5502 23.8709 22.5136 24.4641 22.6117C24.6078 21.43 24.4116 20.0636 23.4717 19.1943H22.2786H21.6171Z" fill="#E5384F"/>
<path fill-rule="evenodd" clip-rule="evenodd" d="M22.6231 22.7259C22.2262 22.8377 21.8292 23.0065 21.4391 23.2346C21.9661 24.2772 22.2809 25.6049 22.2809 27.0467V27.1905H33.491C32.4804 24.4985 29.4418 23.586 26.8822 24.0537C26.2389 23.2553 25.3925 22.7693 24.4641 22.6119C23.8709 22.5138 23.2482 22.5503 22.6231 22.7259Z" fill="#D9EEFF"/>
<path fill-rule="evenodd" clip-rule="evenodd" d="M25.8739 31.3766L19.9198 30.6306L14.1506 31.3766L12.6792 36.3088L20.0111 38.1544L27.3453 36.3088L25.8739 31.3766Z" fill="#BEB9DD"/>
<path fill-rule="evenodd" clip-rule="evenodd" d="M22.2809 27.1903H6.49013H0V29.8686C0 30.699 0.679841 31.3765 1.50789 31.3765H14.1506H25.8739H38.471C39.3014 31.3765 39.9811 30.6967 39.9811 29.8686V27.1903H33.491H22.2809Z" fill="#DDDAEC"/>
<path fill-rule="evenodd" clip-rule="evenodd" d="M27.3453 36.3087H12.6792H10.4071C9.39191 36.3087 8.56152 37.1391 8.56152 38.1543V39.4478C8.56152 39.7512 8.80793 39.9999 9.11129 39.9999H30.9132C31.2143 39.9999 31.4629 39.7512 31.4629 39.4478V38.1543C31.4629 37.1391 30.6325 36.3087 29.6174 36.3087H27.3453Z" fill="#DDDAEC"/>
<path fill-rule="evenodd" clip-rule="evenodd" d="M29.4463 3.64954C32.5967 6.91406 34.5312 11.3512 34.5312 16.2378C34.5312 19.5206 33.6575 22.6026 32.129 25.2603C32.7176 25.7554 33.1921 26.3964 33.4909 27.1903H39.9811V5.1575C39.9811 4.32711 39.3012 3.64954 38.4709 3.64954H29.4463Z" fill="#85BEEF"/>
<path fill-rule="evenodd" clip-rule="evenodd" d="M39.9811 27.1903H33.491H30.847C29.6083 28.8237 28.0981 30.2405 26.3849 31.3765H38.471C39.3014 31.3765 39.9811 30.6966 39.9811 29.8685V27.1903Z" fill="#BEB9DD"/>
<path fill-rule="evenodd" clip-rule="evenodd" d="M13.6008 33.2221H22.1577C23.5744 33.2221 23.5014 33.5803 23.9006 34.9103L24.3181 36.3088H27.3453L25.8739 31.3766H14.1506L13.6008 33.2221Z" fill="#A7A2D3"/>
<path fill-rule="evenodd" clip-rule="evenodd" d="M28.4334 38.1544V39.4479C28.4334 39.7513 28.187 40 27.8837 40H30.9132C31.2143 40 31.4629 39.7513 31.4629 39.4479V38.1544C31.4629 37.1392 30.6325 36.3088 29.6174 36.3088H27.3453H26.588C27.603 36.3088 28.4334 37.1391 28.4334 38.1544Z" fill="#BEB9DD"/>
<path fill-rule="evenodd" clip-rule="evenodd" d="M18.6674 16.1169V19.1944V19.7146C18.6674 20.4423 19.2628 21.0377 19.9906 21.0377C20.716 21.0377 21.3114 20.4423 21.3114 19.7146V19.1944V16.1169V15.4462C21.3114 14.7208 20.716 14.1254 19.9906 14.1254C19.2628 14.1254 18.6674 14.7208 18.6674 15.4462V16.1169Z" fill="#BEB9DD"/>
<path fill-rule="evenodd" clip-rule="evenodd" d="M19.9906 15.4462V16.1169V19.1944V19.7146C19.9906 20.2028 19.7237 20.6294 19.329 20.8575C19.5229 20.9716 19.7488 21.0378 19.9906 21.0378C20.716 21.0378 21.3114 20.4424 21.3114 19.7146V19.1945V16.117V15.4463C21.3114 15.444 21.3114 15.4418 21.3114 15.4394C21.3069 14.7162 20.7138 14.1254 19.9906 14.1254C19.7488 14.1254 19.5229 14.1915 19.329 14.3033C19.7237 14.5336 19.9906 14.9603 19.9906 15.4462Z" fill="#A7A2D3"/>
</svg>
