<svg width="23" height="20" viewBox="0 0 23 20" fill="none" xmlns="http://www.w3.org/2000/svg">
<path d="M3.13636 13.6842C2.26515 13.6842 1.52462 13.3772 0.914773 12.7632C0.304924 12.1491 0 11.4035 0 10.5263C0 9.64912 0.304924 8.90351 0.914773 8.28947C1.52462 7.67544 2.26515 7.36842 3.13636 7.36842V5.26316C3.13636 4.68421 3.3411 4.1886 3.75057 3.77632C4.16004 3.36404 4.65227 3.15789 5.22727 3.15789H8.36364C8.36364 2.2807 8.66856 1.53509 9.27841 0.921053C9.88826 0.307018 10.6288 0 11.5 0C12.3712 0 13.1117 0.307018 13.7216 0.921053C14.3314 1.53509 14.6364 2.2807 14.6364 3.15789H17.7727C18.3477 3.15789 18.84 3.36404 19.2494 3.77632C19.6589 4.1886 19.8636 4.68421 19.8636 5.26316V7.36842C20.7348 7.36842 21.4754 7.67544 22.0852 8.28947C22.6951 8.90351 23 9.64912 23 10.5263C23 11.4035 22.6951 12.1491 22.0852 12.7632C21.4754 13.3772 20.7348 13.6842 19.8636 13.6842V17.8947C19.8636 18.4737 19.6589 18.9693 19.2494 19.3816C18.84 19.7939 18.3477 20 17.7727 20H5.22727C4.65227 20 4.16004 19.7939 3.75057 19.3816C3.3411 18.9693 3.13636 18.4737 3.13636 17.8947V13.6842ZM8.36364 11.5789C8.79924 11.5789 9.16951 11.4254 9.47443 11.1184C9.77936 10.8114 9.93182 10.4386 9.93182 10C9.93182 9.5614 9.77936 9.1886 9.47443 8.88158C9.16951 8.57456 8.79924 8.42105 8.36364 8.42105C7.92803 8.42105 7.55777 8.57456 7.25284 8.88158C6.94792 9.1886 6.79545 9.5614 6.79545 10C6.79545 10.4386 6.94792 10.8114 7.25284 11.1184C7.55777 11.4254 7.92803 11.5789 8.36364 11.5789ZM14.6364 11.5789C15.072 11.5789 15.4422 11.4254 15.7472 11.1184C16.0521 10.8114 16.2045 10.4386 16.2045 10C16.2045 9.5614 16.0521 9.1886 15.7472 8.88158C15.4422 8.57456 15.072 8.42105 14.6364 8.42105C14.2008 8.42105 13.8305 8.57456 13.5256 8.88158C13.2206 9.1886 13.0682 9.5614 13.0682 10C13.0682 10.4386 13.2206 10.8114 13.5256 11.1184C13.8305 11.4254 14.2008 11.5789 14.6364 11.5789ZM7.31818 15.7895H15.6818V13.6842H7.31818V15.7895ZM5.22727 17.8947H17.7727V5.26316H5.22727V17.8947Z" fill="#808080" fill-opacity="0.5"/>
</svg>
