<svg width="18" height="19" viewBox="0 0 18 19" fill="none" xmlns="http://www.w3.org/2000/svg">
<path d="M6.10274 17.2679V14.4554C6.10274 13.7374 6.68903 13.1554 7.41224 13.1554H10.0559C10.4032 13.1554 10.7363 13.2924 10.9819 13.5362C11.2275 13.78 11.3654 14.1106 11.3654 14.4554V17.2679C11.3632 17.5664 11.4811 17.8534 11.693 18.0653C11.9048 18.2771 12.1931 18.3962 12.4937 18.3962H14.2974C15.1398 18.3984 15.9484 18.0677 16.5448 17.4772C17.1412 16.8866 17.4764 16.0847 17.4764 15.2485V7.23603C17.4764 6.56052 17.1748 5.91976 16.6528 5.48637L10.5171 0.621672C9.44983 -0.231276 7.9206 -0.203736 6.88515 0.68708L0.889469 5.48637C0.342851 5.90698 0.0161448 6.54964 0 7.23603V15.2403C0 16.9833 1.4233 18.3962 3.17903 18.3962H4.94149C5.56599 18.3962 6.07351 17.896 6.07804 17.2761L6.10274 17.2679Z" fill="#1F64E5"/>
</svg>
