<svg width="70" height="13" viewBox="0 0 70 13" fill="none" xmlns="http://www.w3.org/2000/svg">
<path d="M63.437 0.815125C64.7184 0.815125 65.1833 0.95045 65.6518 1.2038C66.1201 1.45714 66.4882 1.82881 66.7387 2.30243C66.9891 2.77603 67.1225 3.24621 67.1225 4.54169V9.02802C67.1225 10.3235 66.9892 10.7936 66.7387 11.2673C66.4882 11.7409 66.1202 12.1126 65.6518 12.3659C65.1833 12.6193 64.7184 12.7546 63.437 12.7546H48.2211C46.9398 12.7546 46.4747 12.6192 46.0063 12.3659C45.5379 12.1126 45.1699 11.7409 44.9194 11.2673C44.6689 10.7936 44.5356 10.3235 44.5356 9.02802V4.54169C44.5356 3.24612 44.6689 2.77607 44.9194 2.30243C45.1699 1.82875 45.5379 1.45714 46.0063 1.2038C46.4748 0.95045 46.9397 0.815125 48.2211 0.815125H63.437ZM48.2211 1.85321C47.208 1.85321 46.8539 1.92244 46.4907 2.11884C46.2011 2.27542 45.9795 2.4989 45.8246 2.79169C45.6303 3.15909 45.562 3.51703 45.562 4.54169V9.02802C45.562 10.052 45.6305 10.4098 45.8246 10.777C45.9795 11.0698 46.2011 11.2943 46.4907 11.4509C46.8538 11.6472 47.2082 11.7155 48.2211 11.7155H63.437C64.45 11.7155 64.8042 11.6473 65.1674 11.4509C65.457 11.2943 65.6786 11.0698 65.8334 10.777C66.0275 10.4099 66.0951 10.0519 66.0952 9.02802V4.54169C66.0952 3.51711 66.0277 3.15906 65.8334 2.79169C65.6786 2.49889 65.457 2.27542 65.1674 2.11884C64.8041 1.92237 64.4502 1.85321 63.437 1.85321H48.2211ZM68.1489 4.64618C68.156 4.64985 69.6889 5.44155 69.6889 6.72235C69.6889 8.00297 68.1564 8.79463 68.1489 8.79852V4.64618Z" fill="black" fill-opacity="0.36"/>
<rect x="46.5889" y="2.80499" width="18.48" height="7.95936" rx="1.6" fill="black"/>
<path d="M2.44226 8.22797C2.75804 8.22797 2.91605 8.22775 3.04675 8.25726C3.49784 8.35934 3.85085 8.71149 3.953 9.16254C3.98259 9.29331 3.9823 9.45195 3.9823 9.76801V10.8403C3.9823 11.1563 3.98259 11.315 3.953 11.4457C3.8508 11.8967 3.49779 12.249 3.04675 12.351C2.91606 12.3805 2.75801 12.3803 2.44226 12.3803C2.12654 12.3803 1.96846 12.3805 1.83777 12.351C1.38674 12.249 1.03373 11.8967 0.931519 11.4457C0.901928 11.315 0.902222 11.1563 0.902222 10.8403V9.76801C0.902222 9.45195 0.901928 9.29331 0.931519 9.16254C1.03368 8.71149 1.38669 8.35933 1.83777 8.25726C1.96846 8.22776 2.12651 8.22797 2.44226 8.22797ZM7.37 6.15179C7.68605 6.15179 7.8447 6.1515 7.97546 6.18109C8.42639 6.2833 8.77865 6.6354 8.88074 7.08636C8.91033 7.21713 8.91003 7.37578 8.91003 7.69183V10.8403C8.91003 11.1563 8.91033 11.315 8.88074 11.4457C8.77854 11.8966 8.42632 12.2489 7.97546 12.351C7.8447 12.3806 7.68605 12.3803 7.37 12.3803C7.05423 12.3803 6.89621 12.3806 6.7655 12.351C6.31453 12.249 5.96248 11.8966 5.86023 11.4457C5.83064 11.315 5.82996 11.1563 5.82996 10.8403V7.69183C5.82996 7.37578 5.83064 7.21713 5.86023 7.08636C5.96239 6.63531 6.31442 6.28316 6.7655 6.18109C6.89622 6.15153 7.05417 6.15179 7.37 6.15179ZM12.0927 3.76312C12.4087 3.76312 12.5674 3.76381 12.6981 3.7934C13.1491 3.89562 13.5013 4.24766 13.6034 4.69867C13.633 4.82938 13.6327 4.98737 13.6327 5.30316V10.8403C13.6327 11.1559 13.6329 11.3141 13.6034 11.4448C13.5013 11.8958 13.1491 12.2488 12.6981 12.351C12.5674 12.3806 12.4087 12.3803 12.0927 12.3803C11.7769 12.3803 11.6189 12.3806 11.4882 12.351C11.037 12.2489 10.685 11.8959 10.5829 11.4448C10.5534 11.3141 10.5526 11.156 10.5526 10.8403V5.30316C10.5526 4.98737 10.5533 4.82938 10.5829 4.69867C10.685 4.24756 11.037 3.89547 11.4882 3.7934C11.6189 3.76382 11.7768 3.76312 12.0927 3.76312ZM16.9178 1.27191C17.2339 1.27191 17.3925 1.27162 17.5233 1.30121C17.9744 1.40335 18.3265 1.75636 18.4286 2.20746C18.4581 2.33816 18.4579 2.49619 18.4579 2.81195V10.8403C18.4579 11.1563 18.4582 11.315 18.4286 11.4457C18.3264 11.8966 17.9742 12.2489 17.5233 12.351C17.3925 12.3806 17.2339 12.3803 16.9178 12.3803C16.6021 12.3803 16.4441 12.3806 16.3134 12.351C15.8624 12.249 15.5103 11.8966 15.4081 11.4457C15.3785 11.315 15.3778 11.1563 15.3778 10.8403V2.81195C15.3778 2.49614 15.3786 2.33817 15.4081 2.20746C15.5102 1.7563 15.8622 1.4033 16.3134 1.30121C16.4441 1.27164 16.6021 1.27191 16.9178 1.27191Z" fill="black"/>
<path fill-rule="evenodd" clip-rule="evenodd" d="M31.4973 3.4483C33.7913 3.4484 35.9976 4.33973 37.6601 5.93806C37.7853 6.06146 37.9854 6.0599 38.1087 5.93457L39.3055 4.71325C39.3679 4.64968 39.4027 4.56357 39.4022 4.47398C39.4017 4.38439 39.3659 4.29871 39.3027 4.23588C34.9391 0.00706625 28.0549 0.00706625 23.6912 4.23588C23.628 4.29866 23.5921 4.38432 23.5916 4.47391C23.591 4.5635 23.6257 4.64963 23.6881 4.71325L24.8852 5.93457C25.0084 6.06009 25.2087 6.06165 25.3338 5.93806C26.9966 4.33963 29.2031 3.44829 31.4973 3.4483ZM31.4973 7.4218C32.7577 7.42173 33.9732 7.89546 34.9074 8.75096C35.0338 8.87237 35.2329 8.86974 35.356 8.74503L36.5514 7.5237C36.6144 7.45963 36.6493 7.37273 36.6484 7.28242C36.6475 7.19212 36.6108 7.10595 36.5466 7.04319C33.7015 4.36703 29.2956 4.36703 26.4505 7.04319C26.3862 7.10595 26.3496 7.19216 26.3487 7.28249C26.3479 7.37283 26.3829 7.45973 26.446 7.5237L27.641 8.74503C27.7642 8.86974 27.9633 8.87237 28.0897 8.75096C29.0233 7.89603 30.2378 7.42233 31.4973 7.4218ZM33.7945 10.3366C33.8585 10.2731 33.8937 10.1858 33.8918 10.0953C33.89 10.0047 33.8513 9.91893 33.7849 9.85818C32.4643 8.72875 30.5303 8.72875 29.2098 9.85818C29.1433 9.91888 29.1045 10.0046 29.1026 10.0952C29.1007 10.1858 29.1359 10.2731 29.1998 10.3366L31.2679 12.4467C31.3285 12.5087 31.4111 12.5436 31.4973 12.5436C31.5836 12.5436 31.6662 12.5087 31.7268 12.4467L33.7945 10.3366Z" fill="black"/>
</svg>
